<svg id="Layer_1" data-name="Layer 1" xmlns="http://www.w3.org/2000/svg" xmlns:xlink="http://www.w3.org/1999/xlink" viewBox="0 0 514.37 150"><defs><style>.cls-1,.cls-3{fill:#222852;}.cls-2,.cls-3{fill-rule:evenodd;}.cls-2{fill:url(#linear-gradient);}</style><linearGradient id="linear-gradient" x1="60.51" y1="3.8" x2="60.51" y2="158.16" gradientUnits="userSpaceOnUse"><stop offset="0" stop-color="#46ccff"/><stop offset="1" stop-color="#4b179c"/></linearGradient></defs><title>logo_1</title><path class="cls-1" d="M191,108.32A35.87,35.87,0,1,1,216.4,47.08a6.82,6.82,0,0,1-9.64,9.64,22.25,22.25,0,1,0,0,31.47,6.82,6.82,0,0,1,9.64,9.64A35.64,35.64,0,0,1,191,108.32Z" transform="translate(-4 -3.27)"/><path class="cls-1" d="M191,37.58a34.78,34.78,0,0,1,24.67,10.21A5.81,5.81,0,0,1,207.47,56a23.25,23.25,0,1,0,0,32.89,5.81,5.81,0,0,1,8.22,8.22A34.89,34.89,0,1,1,191,37.58m0-2a36.87,36.87,0,1,0,26.09,63,7.82,7.82,0,0,0-11.06-11.05,21.25,21.25,0,1,1,0-30.07,7.82,7.82,0,0,0,11.06-11.05A36.68,36.68,0,0,0,191,35.58Z" transform="translate(-4 -3.27)"/><path class="cls-1" d="M263.32,108.34a35.89,35.89,0,1,1,35.89-35.88A35.92,35.92,0,0,1,263.32,108.34Zm0-58.14a22.26,22.26,0,1,0,22.26,22.26A22.28,22.28,0,0,0,263.32,50.2Z" transform="translate(-4 -3.27)"/><path class="cls-1" d="M263.32,37.57a34.89,34.89,0,1,1-34.88,34.89,34.89,34.89,0,0,1,34.88-34.89m0,58.14a23.26,23.26,0,1,0-23.26-23.25,23.28,23.28,0,0,0,23.26,23.25m0-60.14a36.89,36.89,0,1,0,36.89,36.89,36.92,36.92,0,0,0-36.89-36.89Zm0,58.14a21.26,21.26,0,1,1,21.26-21.25,21.28,21.28,0,0,1-21.26,21.25Z" transform="translate(-4 -3.27)"/><path class="cls-1" d="M318.49,108.34a6.6,6.6,0,0,1-1.17-.1,6.41,6.41,0,0,1-1.16.1,6.82,6.82,0,0,1-6.81-6.81V43.38a6.82,6.82,0,0,1,6.81-6.81,6.41,6.41,0,0,1,1.16.1,6.6,6.6,0,0,1,1.17-.1h14.38c20.75,0,37.63,16.1,37.63,35.89s-16.88,35.88-37.63,35.88Zm14.38-13.63c13.24,0,24-10,24-22.25s-10.76-22.26-24-22.26H323V94.71Z" transform="translate(-4 -3.27)"/><path class="cls-1" d="M332.87,37.57c20.2,0,36.63,15.65,36.63,34.89s-16.43,34.88-36.63,34.88H318.49a5.66,5.66,0,0,1-1.17-.12,5.5,5.5,0,0,1-1.16.12,5.83,5.83,0,0,1-5.81-5.81V43.38a5.83,5.83,0,0,1,5.81-5.81,5.5,5.5,0,0,1,1.16.12,5.66,5.66,0,0,1,1.17-.12h14.38M322,95.71h10.89c13.79,0,25-10.43,25-23.25s-11.21-23.26-25-23.26H322V95.71m10.89-60.14H318.49a7.68,7.68,0,0,0-1.17.09,7.46,7.46,0,0,0-1.16-.09,7.81,7.81,0,0,0-7.81,7.81v58.15a7.81,7.81,0,0,0,7.81,7.81,7.46,7.46,0,0,0,1.16-.09,7.68,7.68,0,0,0,1.17.09h14.38c21.3,0,38.63-16.55,38.63-36.88s-17.33-36.89-38.63-36.89ZM324,51.2h8.89c12.68,0,23,9.53,23,21.26s-10.32,21.25-23,21.25H324V51.2Z" transform="translate(-4 -3.27)"/><path class="cls-1" d="M387.61,108.34a6.81,6.81,0,0,1-6.81-6.81V43.38a6.81,6.81,0,0,1,6.81-6.81h41.87a6.82,6.82,0,0,1,0,13.63H394.43V65.64h35.05a6.82,6.82,0,0,1,0,13.63H394.43V94.71h35.05a6.82,6.82,0,0,1,0,13.63Z" transform="translate(-4 -3.27)"/><path class="cls-1" d="M429.48,37.57a5.82,5.82,0,0,1,0,11.63H393.43V66.64h36.05a5.82,5.82,0,0,1,0,11.63H393.43V95.71h36.05a5.82,5.82,0,0,1,0,11.63H387.61a5.82,5.82,0,0,1-5.81-5.81V43.38a5.82,5.82,0,0,1,5.81-5.81h41.87m0-2H387.61a7.81,7.81,0,0,0-7.81,7.81v58.15a7.81,7.81,0,0,0,7.81,7.81h41.87a7.82,7.82,0,0,0,0-15.63H395.43V80.27h34.05a7.82,7.82,0,0,0,0-15.63H395.43V51.2h34.05a7.82,7.82,0,0,0,0-15.63Z" transform="translate(-4 -3.27)"/><path class="cls-1" d="M468.69,108.34a6.82,6.82,0,0,1-6.82-6.81V43.38a6.82,6.82,0,0,1,6.82-6.81h41.86a6.82,6.82,0,1,1,0,13.63H475.5V65.64h23.42a6.82,6.82,0,1,1,0,13.63H475.5v22.26A6.81,6.81,0,0,1,468.69,108.34Z" transform="translate(-4 -3.27)"/><path class="cls-1" d="M510.55,37.57a5.82,5.82,0,1,1,0,11.63H474.5V66.64h24.42a5.82,5.82,0,1,1,0,11.63H474.5v23.26a5.82,5.82,0,0,1-11.63,0V43.38a5.83,5.83,0,0,1,5.82-5.81h41.86m0-2H468.69a7.82,7.82,0,0,0-7.82,7.81v58.15a7.82,7.82,0,0,0,15.63,0V80.27h22.42a7.82,7.82,0,1,0,0-15.63H476.5V51.2h34.05a7.82,7.82,0,1,0,0-15.63Z" transform="translate(-4 -3.27)"/><path class="cls-2" d="M106.34,126a55,55,0,1,1-7.29-98.93l0-.79,16.38-13.58A75,75,0,1,0,79,153.27a74.59,74.59,0,0,0,38-10.36Z" transform="translate(-4 -3.27)"/><path class="cls-3" d="M48.66,71,104.8,14.89a9.93,9.93,0,0,1,14,14L62.69,85.08a9.92,9.92,0,0,1-14-14Z" transform="translate(-4 -3.27)"/><path class="cls-3" d="M76.8,99.44l28.12-28.12A9.94,9.94,0,0,1,119,85.38L90.86,113.5A9.94,9.94,0,0,1,76.8,99.44Z" transform="translate(-4 -3.27)"/><path class="cls-3" d="M104,127.77a10,10,0,1,1,0,14.14A10,10,0,0,1,104,127.77Z" transform="translate(-4 -3.27)"/></svg>