<svg id="Layer_1" data-name="Layer 1" xmlns="http://www.w3.org/2000/svg" xmlns:xlink="http://www.w3.org/1999/xlink" viewBox="0 0 514.64 150.01"><defs><style>.cls-1{fill:#fff;}.cls-2{fill:url(#linear-gradient);}</style><linearGradient id="linear-gradient" x1="60.5" y1="148.2" x2="60.5" y2="-6.16" gradientTransform="matrix(1, 0, 0, -1, -4, 148.73)" gradientUnits="userSpaceOnUse"><stop offset="0" stop-color="#46ccff"/><stop offset="1" stop-color="#4b179c"/></linearGradient></defs><title>logo_3</title><path class="cls-1" d="M187,105.05a35.87,35.87,0,1,1,25.4-61.24,6.82,6.82,0,0,1-9.64,9.64,22.25,22.25,0,1,0,0,31.47,6.82,6.82,0,0,1,9.64,9.64A35.63,35.63,0,0,1,187,105.05Z" transform="translate(-0.01 0.01)"/><path class="cls-1" d="M187,34.31a34.81,34.81,0,0,1,24.67,10.21,5.81,5.81,0,0,1-8.2,8.21,23.25,23.25,0,1,0,0,32.89,5.81,5.81,0,0,1,8.22,8.22A34.89,34.89,0,1,1,187,34.31m0-2a36.87,36.87,0,1,0,26.09,63,7.82,7.82,0,0,0-11.06-11,21.25,21.25,0,1,1,0-30.07,7.82,7.82,0,0,0,11.06-11A36.67,36.67,0,0,0,187,32.31Z" transform="translate(-0.01 0.01)"/><path class="cls-1" d="M259.32,105.07a35.89,35.89,0,1,1,35.89-35.89h0A35.92,35.92,0,0,1,259.32,105.07Zm0-58.14a22.26,22.26,0,1,0,22.26,22.26A22.26,22.26,0,0,0,259.32,46.93Z" transform="translate(-0.01 0.01)"/><path class="cls-1" d="M259.32,34.3a34.89,34.89,0,1,1-34.88,34.9h0A34.89,34.89,0,0,1,259.32,34.3m0,58.14a23.26,23.26,0,1,0-23.26-23.26h0a23.28,23.28,0,0,0,23.26,23.25m0-60.14a36.89,36.89,0,1,0,36.89,36.89A36.89,36.89,0,0,0,259.32,32.3Zm0,58.14a21.26,21.26,0,1,1,21.26-21.26h0A21.29,21.29,0,0,1,259.32,90.44Z" transform="translate(-0.01 0.01)"/><path class="cls-1" d="M314.49,105.07a6.6,6.6,0,0,1-1.17-.1,6.41,6.41,0,0,1-1.16.1,6.82,6.82,0,0,1-6.81-6.81V40.11a6.82,6.82,0,0,1,6.81-6.81,6.41,6.41,0,0,1,1.16.1,6.6,6.6,0,0,1,1.17-.1h14.38c20.75,0,37.63,16.1,37.63,35.89s-16.88,35.88-37.63,35.88Zm14.38-13.63c13.24,0,24-10,24-22.25s-10.76-22.26-24-22.26H319V91.44Z" transform="translate(-0.01 0.01)"/><path class="cls-1" d="M328.87,34.3c20.2,0,36.63,15.65,36.63,34.89s-16.43,34.88-36.63,34.88H314.49a5.74,5.74,0,0,1-1.17-.12,5.64,5.64,0,0,1-1.16.12,5.83,5.83,0,0,1-5.81-5.81V40.11a5.83,5.83,0,0,1,5.81-5.81,5.64,5.64,0,0,1,1.16.12,5.74,5.74,0,0,1,1.17-.12h14.38M318,92.44h10.89c13.79,0,25-10.43,25-23.25s-11.21-23.26-25-23.26H318V92.44M328.89,32.3h-14.4a7.68,7.68,0,0,0-1.17.09,7.46,7.46,0,0,0-1.16-.09,7.81,7.81,0,0,0-7.81,7.81V98.26a7.81,7.81,0,0,0,7.81,7.81,7.46,7.46,0,0,0,1.16-.09,7.68,7.68,0,0,0,1.17.09h14.38c21.3,0,38.63-16.55,38.63-36.88S350.17,32.3,328.87,32.3ZM320,47.93h8.89c12.68,0,23,9.53,23,21.26s-10.32,21.25-23,21.25H320Z" transform="translate(-0.01 0.01)"/><path class="cls-1" d="M383.61,105.07a6.81,6.81,0,0,1-6.81-6.81V40.11a6.81,6.81,0,0,1,6.81-6.81h41.87a6.82,6.82,0,0,1,0,13.63H390.43V62.37h35.05a6.82,6.82,0,0,1,0,13.63H390.43V91.44h35.05a6.82,6.82,0,0,1,0,13.63Z" transform="translate(-0.01 0.01)"/><path class="cls-1" d="M425.48,34.3a5.82,5.82,0,0,1,0,11.63H389.43V63.37h36.05a5.82,5.82,0,0,1,0,11.63H389.43V92.44h36.05a5.82,5.82,0,0,1,0,11.63H383.61a5.82,5.82,0,0,1-5.81-5.81V40.11a5.82,5.82,0,0,1,5.81-5.81h41.87m0-2H383.61a7.81,7.81,0,0,0-7.81,7.81V98.26a7.81,7.81,0,0,0,7.81,7.81h41.87a7.82,7.82,0,0,0,0-15.63H391.43V77h34.05a7.82,7.82,0,0,0,0-15.63H391.43V47.93h34.05a7.82,7.82,0,0,0,0-15.63Z" transform="translate(-0.01 0.01)"/><path class="cls-1" d="M464.69,105.07a6.83,6.83,0,0,1-6.82-6.81V40.11a6.83,6.83,0,0,1,6.82-6.81h41.86a6.82,6.82,0,1,1,.52,13.63H471.5V62.37h23.42A6.82,6.82,0,1,1,495.44,76a4.51,4.51,0,0,1-.52,0H471.5V98.26A6.81,6.81,0,0,1,464.69,105.07Z" transform="translate(-0.01 0.01)"/><path class="cls-1" d="M506.55,34.3A5.82,5.82,0,1,1,507,45.93H470.5V63.37h24.42A5.82,5.82,0,1,1,495.4,75a3.84,3.84,0,0,1-.48,0H470.5V98.26a5.82,5.82,0,0,1-11.63,0V40.11a5.83,5.83,0,0,1,5.82-5.81h41.86m0-2H464.69a7.83,7.83,0,0,0-7.82,7.81V98.26a7.82,7.82,0,0,0,15.63,0V77h22.42a7.82,7.82,0,0,0,.56-15.63h-23V47.93h34.05a7.82,7.82,0,0,0,.56-15.63Z" transform="translate(-0.01 0.01)"/><path class="cls-2" d="M102.34,122.73A55,55,0,1,1,95.05,23.8V23L111.43,9.43A75,75,0,1,0,113,139.64Z" transform="translate(-0.01 0.01)"/><path class="cls-1" d="M44.66,67.73,100.8,11.62a9.93,9.93,0,0,1,14,14L58.69,81.81a9.92,9.92,0,0,1-14-14Z" transform="translate(-0.01 0.01)"/><path class="cls-1" d="M72.8,96.17l28.12-28.12A9.95,9.95,0,0,1,115,82.11h0L86.86,110.23A9.94,9.94,0,0,1,72.8,96.17Z" transform="translate(-0.01 0.01)"/><path class="cls-1" d="M100,124.5a10,10,0,1,1,0,14.14h0A10,10,0,0,1,100,124.5Z" transform="translate(-0.01 0.01)"/></svg>